<svg id="Calque_9" data-name="Calque 9" xmlns="http://www.w3.org/2000/svg" viewBox="0 0 460.92 347.97"><path d="M465,372.77l-48.3-87.58-47.22,34.45,1.86,25.95a4.32,4.32,0,0,1-.68,2.66l-5.39,8.34a4.32,4.32,0,0,1-7.72-.93l-8.7-25.24a7.63,7.63,0,0,1-6.59-8.29l-22.39-14.71a4.32,4.32,0,0,1,1-7.71l9.42-3.2a4.45,4.45,0,0,1,2.77,0l24.57,8.23,44.94-37.49-73.46-68.58c-4.52-4.22-2-11.63,4-11.77l17.85-.4a7.06,7.06,0,0,1,4.12,1.27l25.72,17.9,4-3.12a5.21,5.21,0,0,1,7.31.9l2.36,3a5.2,5.2,0,0,1-.9,7.3l-.53.41L411,226.75l2.35-1.83a5.2,5.2,0,0,1,7.3.9l2.36,3a5.19,5.19,0,0,1,.07,6.31l9.73,6.78,26.21-21.86a7.69,7.69,0,0,1,4.53-1.76l10.72-.5a7.63,7.63,0,0,1,7.67,9.82l-3.1,10.27a7.58,7.58,0,0,1-2.81,4l-27.41,20L453,273.41a5.19,5.19,0,0,1,6.08,1.61l2.36,3a5.19,5.19,0,0,1-.9,7.3l-2.37,1.85,7.74,20.63.61-.48a5.21,5.21,0,0,1,7.31.9l2.36,3a5.2,5.2,0,0,1-.9,7.3l-4.13,3.22,10.7,28.51a7,7,0,0,1,.22,4.28l-4.72,17.2C475.76,377.58,468,378.2,465,372.77Z" transform="translate(-21.38 -186.28)"/><path d="M277.9,368.22c-2.24,92.39-43.52,166-94.08,166-40.19,0-74.5-46.51-88-112a95.15,95.15,0,0,0,35.36.87c12.07,53.23,38.88,90.29,70,90.29,41,0,74.53-64.28,76.71-145.21Z" transform="translate(-21.38 -186.28)"/><path d="M278,360.72c-25.42,11.86-51.3,20.68-75,24.61-27.56,4.58-54,5.19-77.37,2.44-.85-9.09-1.29-18.44-1.29-28,0-49.17,11.56-93,29.55-121.09l-.14,0a.37.37,0,0,0,.14,0c13-20.4,29.44-32.55,47.29-32.55,11.42,0,22.24,5,32,13.91.69.64,1.39,1.29,2.08,2,21.08,20.86,36.68,60.53,41.32,108-4.2-44.46-17.55-83.12-36.32-109.11-.62-.86-1.23-1.69-1.87-2.5-15.38-20.25-34.2-32.14-54.54-32.14-30.2,0-57.09,26.27-74.32,67.11-57.42,24.43-93.68,63.87-87.42,101.66,2.11,12.69,8.71,24.47,19,34.3l.06.06a97.38,97.38,0,0,0,18.74,13.52l1.24.68c.6.31,1.19.63,1.79.93.91.46,1.84.91,2.77,1.35q4.17,1.94,8.63,3.61l1.8.63c20.17,6.92,43.09,8,67.79,4.54,1-.14,2-.28,3-.45s2.14-.32,3.23-.52c8.43-1.43,16.89-3.31,25.3-5.51l4-1.09.08,0c38.2-10.51,74.78-27.36,98.42-38.86,0-.18,0-.36,0-.54v.54l3.07-1.51c37.28-18.24,74.67-43.82,105.54-71.24C356.52,319.72,315.69,343.13,278,360.72ZM90.27,380.33c-28.71-9.26-48.06-25.14-51.45-45.64-4.86-29.25,24-60.14,70.49-80.82C97,283.27,89.64,320.19,89.64,360.26Q89.64,370.45,90.27,380.33Z" transform="translate(-21.38 -186.28)"/></svg>